<svg width="144" height="40" viewBox="0 0 144 40" fill="none" xmlns="http://www.w3.org/2000/svg">
<path d="M46.6699 21.6699H53.8799V23.9399H49.3699V26.2699H50.8699C51.8799 26.2699 53.1799 26.3899 54.1599 27.3499C54.5799 27.7699 55.0999 28.5399 55.0999 29.7799C55.0999 30.7799 54.7699 31.6699 54.1599 32.2799C53.2999 33.1399 52.0599 33.3299 50.6399 33.3299H46.6699V21.6699ZM50.4299 31.1599C50.7999 31.1599 51.4599 31.1299 51.8799 30.7899C52.0199 30.6699 52.3299 30.3499 52.3299 29.7599C52.3299 29.1999 52.0499 28.8499 51.8099 28.6799C51.3899 28.3799 50.7099 28.3699 50.4299 28.3699H49.3599V31.1699H50.4299V31.1599Z" fill="#2B2D33"/>
<path d="M62.36 25.53H64.88V33.33H62.36V32.39C61.68 33.44 60.7 33.6 60.05 33.6C58.93 33.6 57.99 33.32 57.13 32.41C56.31 31.54 55.99 30.52 55.99 29.49C55.99 28.18 56.48 27.06 57.2 26.34C57.88 25.66 58.83 25.27 59.91 25.27C60.57 25.27 61.64 25.43 62.36 26.41V25.53ZM59.16 28C58.9 28.26 58.58 28.72 58.58 29.42C58.58 30.12 58.88 30.57 59.1 30.82C59.45 31.19 59.99 31.43 60.59 31.43C61.1 31.43 61.57 31.22 61.9 30.89C62.23 30.58 62.51 30.09 62.51 29.42C62.51 28.86 62.3 28.34 61.93 27.99C61.55 27.62 60.99 27.45 60.53 27.45C59.99 27.44 59.49 27.67 59.16 28Z" fill="#2B2D33"/>
<path d="M66.4 25.53H68.92V28.24H71.74V25.53H74.26V33.33H71.74V30.27H68.92V33.33H66.4V25.53Z" fill="#2B2D33"/>
<path d="M75.77 25.53H78.29V28.63L80.84 25.53H83.97L80.63 29.15L84.2 33.33H80.95L78.29 29.87V33.33H75.77V25.53Z" fill="#2B2D33"/>
<path d="M50.78 6.66992C51.79 6.66992 52.91 6.80992 53.84 7.62992C54.84 8.49992 54.98 9.65992 54.98 10.4599C54.98 11.9299 54.42 12.7499 53.98 13.2099C53.05 14.1499 51.83 14.2399 51.01 14.2399H49.37V18.3299H46.68V6.66992H50.78ZM49.36 12.0399H50.32C50.69 12.0399 51.33 12.0199 51.77 11.5999C52.01 11.3599 52.21 10.9499 52.21 10.4499C52.21 9.95992 52.04 9.55992 51.77 9.30992C51.37 8.92992 50.79 8.86992 50.27 8.86992H49.36V12.0399Z" fill="#2B2D33"/>
<path d="M61.55 10.53H64.07V18.33H61.55V17.39C60.87 18.44 59.89 18.6 59.24 18.6C58.12 18.6 57.18 18.32 56.32 17.41C55.5 16.54 55.18 15.52 55.18 14.49C55.18 13.18 55.67 12.06 56.39 11.34C57.07 10.66 58.02 10.27 59.1 10.27C59.76 10.27 60.83 10.43 61.55 11.41V10.53ZM58.35 13C58.09 13.26 57.77 13.72 57.77 14.42C57.77 15.12 58.07 15.57 58.29 15.82C58.64 16.19 59.18 16.43 59.78 16.43C60.29 16.43 60.76 16.22 61.09 15.89C61.42 15.58 61.7 15.09 61.7 14.42C61.7 13.86 61.49 13.34 61.12 12.99C60.74 12.62 60.18 12.45 59.72 12.45C59.19 12.44 58.68 12.67 58.35 13Z" fill="#2B2D33"/>
<path d="M68.11 10.5299V14.9899L71.43 10.5299H73.77V18.3299H71.25V13.7999L67.93 18.3299H65.59V10.5299H68.11ZM72.85 7.37992C72.64 8.00992 72.22 8.54992 71.73 8.86992C71.07 9.30992 70.26 9.35992 69.68 9.35992C69.1 9.35992 68.3 9.30992 67.63 8.86992C67.14 8.55992 66.72 8.00992 66.51 7.37992L68.26 6.69992C68.33 7.04992 68.5 7.32992 68.71 7.49992C68.94 7.68992 69.23 7.80992 69.67 7.80992C70.11 7.80992 70.4 7.68992 70.63 7.49992C70.84 7.32992 71.01 7.04992 71.08 6.69992L72.85 7.37992Z" fill="#2B2D33"/>
<path d="M79.3399 22.2199V18.4499H79.2399C77.4699 18.4499 76.4899 17.7199 76.0399 17.2799C75.4799 16.7399 74.9199 15.8099 74.9199 14.3899C74.9199 12.8499 75.6199 11.8699 76.2699 11.3499C77.0399 10.7399 78.1899 10.4099 79.2299 10.4099H79.3499V6.66992H81.8699V10.4099H81.9899C83.0199 10.4099 84.1799 10.7399 84.9499 11.3499C85.5999 11.8699 86.2999 12.8499 86.2999 14.3899C86.2999 15.8099 85.7399 16.7299 85.1799 17.2799C84.7299 17.7199 83.7499 18.4499 81.9799 18.4499H81.8799V22.2199H79.3399ZM79.4599 12.4399C78.8699 12.4099 78.2499 12.6099 77.8899 12.9799C77.5899 13.2799 77.3799 13.7799 77.3799 14.3999C77.3799 15.0099 77.5899 15.5199 77.8899 15.8299C78.2199 16.1999 78.8199 16.4399 79.4599 16.4199V12.4399ZM81.7399 16.4299C82.3899 16.4499 82.9799 16.1999 83.3099 15.8399C83.6099 15.5299 83.8199 15.0199 83.8199 14.4099C83.8199 13.7999 83.6099 13.2899 83.3099 12.9899C82.9399 12.6199 82.3299 12.4099 81.7399 12.4499V16.4299Z" fill="#2B2D33"/>
<path d="M91.4599 22.2199V18.4499H91.3599C89.5899 18.4499 88.6099 17.7199 88.1599 17.2799C87.5999 16.7399 87.0399 15.8099 87.0399 14.3899C87.0399 12.8499 87.7399 11.8699 88.3899 11.3499C89.1599 10.7399 90.3099 10.4099 91.3499 10.4099H91.4699V6.66992H93.9899V10.4099H94.1099C95.1399 10.4099 96.2999 10.7399 97.0699 11.3499C97.7199 11.8699 98.4199 12.8499 98.4199 14.3899C98.4199 15.8099 97.8599 16.7299 97.2999 17.2799C96.8499 17.7199 95.8699 18.4499 94.0999 18.4499H93.9999V22.2199H91.4599ZM91.5799 12.4399C90.9899 12.4099 90.3699 12.6099 90.0099 12.9799C89.7099 13.2799 89.4999 13.7799 89.4999 14.3999C89.4999 15.0099 89.7099 15.5199 90.0099 15.8299C90.3399 16.1999 90.9399 16.4399 91.5799 16.4199V12.4399ZM93.8599 16.4299C94.5099 16.4499 95.0999 16.1999 95.4299 15.8399C95.7299 15.5299 95.9399 15.0199 95.9399 14.4099C95.9399 13.7999 95.7299 13.2899 95.4299 12.9899C95.0599 12.6199 94.4499 12.4099 93.8599 12.4499V16.4299Z" fill="#2B2D33"/>
<path d="M105.52 10.53H108.04V18.33H105.52V17.39C104.84 18.44 103.86 18.6 103.21 18.6C102.09 18.6 101.15 18.32 100.29 17.41C99.47 16.54 99.15 15.52 99.15 14.49C99.15 13.18 99.64 12.06 100.36 11.34C101.04 10.66 101.99 10.27 103.07 10.27C103.73 10.27 104.8 10.43 105.52 11.41V10.53ZM102.32 13C102.06 13.26 101.74 13.72 101.74 14.42C101.74 15.12 102.04 15.57 102.26 15.82C102.61 16.19 103.15 16.43 103.75 16.43C104.26 16.43 104.73 16.22 105.06 15.89C105.39 15.58 105.67 15.09 105.67 14.42C105.67 13.86 105.46 13.34 105.09 12.99C104.71 12.62 104.15 12.45 103.69 12.45C103.16 12.44 102.65 12.67 102.32 13Z" fill="#2B2D33"/>
<path d="M112.08 10.5299V14.9899L115.4 10.5299H117.74V18.3299H115.22V13.7999L111.9 18.3299H109.56V10.5299H112.08ZM116.82 7.37992C116.61 8.00992 116.19 8.54992 115.7 8.86992C115.04 9.30992 114.23 9.35992 113.65 9.35992C113.07 9.35992 112.27 9.30992 111.6 8.86992C111.11 8.55992 110.69 8.00992 110.48 7.37992L112.23 6.69992C112.3 7.04992 112.47 7.32992 112.68 7.49992C112.91 7.68992 113.2 7.80992 113.64 7.80992C114.08 7.80992 114.37 7.68992 114.6 7.49992C114.81 7.32992 114.98 7.04992 115.05 6.69992L116.82 7.37992Z" fill="#2B2D33"/>
<path d="M119.01 11.2C119.34 10.99 119.88 10.71 120.3 10.55C120.89 10.34 121.54 10.27 122.14 10.27C122.56 10.27 123.99 10.3 124.78 11.07C125.22 11.49 125.36 11.98 125.36 12.5C125.36 12.99 125.27 13.43 124.89 13.83C124.7 14.02 124.47 14.18 124.23 14.27C124.81 14.41 125.17 14.72 125.28 14.83C125.66 15.2 125.8 15.62 125.8 16.12C125.8 16.66 125.63 17.24 125.12 17.75C124.46 18.4 123.55 18.59 122.25 18.59C121.55 18.59 120.82 18.5 120.12 18.24C119.44 17.98 118.93 17.59 118.72 17.42L119.79 15.76C120.07 16 120.44 16.25 120.75 16.39C121.08 16.53 121.55 16.63 121.96 16.63C122.24 16.63 122.62 16.58 122.87 16.44C123.17 16.27 123.22 16.02 123.22 15.85C123.22 15.59 123.08 15.43 122.85 15.33C122.64 15.24 122.22 15.19 121.94 15.19H121V13.48H121.72C121.95 13.48 122.42 13.45 122.66 13.34C122.96 13.2 123.03 12.97 123.03 12.82C123.03 12.68 122.96 12.45 122.65 12.31C122.53 12.26 122.28 12.17 121.86 12.17C121.46 12.17 121.16 12.24 120.83 12.38C120.5 12.52 120.24 12.68 119.99 12.89L119.01 11.2Z" fill="#2B2D33"/>
<path d="M134.92 14.87H129.1C129.1 15.29 129.26 15.85 129.57 16.2C129.95 16.62 130.48 16.69 130.86 16.69C131.23 16.69 131.61 16.62 131.87 16.46C131.9 16.44 132.2 16.25 132.41 15.81L134.79 16.05C134.44 17.15 133.74 17.73 133.29 18.01C132.54 18.46 131.7 18.59 130.82 18.59C129.65 18.59 128.62 18.38 127.71 17.47C127.03 16.79 126.54 15.76 126.54 14.46C126.54 13.34 126.94 12.19 127.73 11.38C128.67 10.44 129.85 10.26 130.72 10.26C131.59 10.26 132.85 10.42 133.82 11.43C134.75 12.41 134.92 13.63 134.92 14.6V14.87ZM132.6 13.37C132.58 13.3 132.46 12.81 132.09 12.46C131.81 12.2 131.41 12.02 130.9 12.02C130.25 12.02 129.87 12.28 129.62 12.53C129.43 12.74 129.25 13.02 129.18 13.37H132.6Z" fill="#2B2D33"/>
<path d="M136.06 10.53H138.58V13.24H141.4V10.53H143.92V18.33H141.4V15.27H138.58V18.33H136.06V10.53Z" fill="#2B2D33"/>
<path d="M40 32.44C40 37.3 37.3 40 32.44 40H7.56C2.7 40 0 37.3 0 32.44V7.56C0 2.7 2.7 0 7.56 0H32.45C37.3 0 40 2.7 40 7.56V32.44Z" fill="#FEE600"/>
<path d="M25.7202 18.0499V14.2299L27.1002 12.8499V16.1599L28.3002 17.3599L33.1302 12.5299L34.3202 13.7199C34.3102 12.8199 34.1302 10.2099 31.9202 8.03991C29.5402 5.73991 26.9602 6.77991 26.0802 7.65991L21.2602 12.4799L22.4902 13.7099L20.0002 16.2199L17.5102 13.7299L18.7402 12.4999L13.9202 7.67991C13.0402 6.79991 10.4602 5.75991 8.08018 8.05991C5.87018 10.2299 5.69018 12.8399 5.68018 13.7399L6.87018 12.5499L11.7002 17.3799L12.9002 16.1799V12.8699L14.2802 14.2499V18.0699L16.2202 19.9999L6.66018 29.5599L10.4402 33.3299L20.0002 23.7799L29.5602 33.3399L33.3402 29.5699L23.7802 19.9999L25.7202 18.0499Z" fill="#2B2D33"/>
</svg>
